<?xml version="1.0" encoding="UTF-8" standalone="no"?>
<!-- Created with Inkscape (http://www.inkscape.org/) -->

<svg
   xmlns:dc="http://purl.org/dc/elements/1.1/"
   xmlns:cc="http://creativecommons.org/ns#"
   xmlns:rdf="http://www.w3.org/1999/02/22-rdf-syntax-ns#"
   xmlns:svg="http://www.w3.org/2000/svg"
   xmlns="http://www.w3.org/2000/svg"
   xmlns:sodipodi="http://sodipodi.sourceforge.net/DTD/sodipodi-0.dtd"
   xmlns:inkscape="http://www.inkscape.org/namespaces/inkscape"
   width="76.999954mm"
   height="76.965363mm"
   viewBox="0 0 76.999954 76.965363"
   version="1.1"
   id="svg903"
   inkscape:version="0.92.3 (2405546, 2018-03-11)"
   sodipodi:docname="eiffel2.svg"
   inkscape:export-filename="/home/kim/Documents/Mega/megasync/joli/langscigraphics/français.png"
   inkscape:export-xdpi="33"
   inkscape:export-ydpi="33">
  <defs
     id="defs897" />
  <sodipodi:namedview
     id="base"
     pagecolor="#ffffff"
     bordercolor="#666666"
     borderopacity="1.0"
     inkscape:pageopacity="0.0"
     inkscape:pageshadow="2"
     inkscape:zoom="1.4678952"
     inkscape:cx="198.36549"
     inkscape:cy="35.46654"
     inkscape:document-units="mm"
     inkscape:current-layer="layer1"
     showgrid="false"
     fit-margin-top="0"
     fit-margin-left="0"
     fit-margin-right="0"
     fit-margin-bottom="0"
     inkscape:window-width="3840"
     inkscape:window-height="2131"
     inkscape:window-x="0"
     inkscape:window-y="0"
     inkscape:window-maximized="1" />
  <metadata
     id="metadata900">
    <rdf:RDF>
      <cc:Work
         rdf:about="">
        <dc:format>image/svg+xml</dc:format>
        <dc:type
           rdf:resource="http://purl.org/dc/dcmitype/StillImage" />
        <dc:title></dc:title>
      </cc:Work>
    </rdf:RDF>
  </metadata>
  <g
     inkscape:label="Layer 1"
     inkscape:groupmode="layer"
     id="layer1"
     transform="translate(-55.994072,-70.285159)">
    <circle
       style="color:#000000;clip-rule:nonzero;display:inline;overflow:visible;visibility:visible;opacity:1;isolation:auto;mix-blend-mode:normal;color-interpolation:sRGB;color-interpolation-filters:linearRGB;solid-color:#000000;solid-opacity:1;vector-effect:none;fill:#ffffff;fill-opacity:1;fill-rule:nonzero;stroke:none;stroke-width:0;stroke-linecap:butt;stroke-linejoin:miter;stroke-miterlimit:4;stroke-dasharray:none;stroke-dashoffset:0;stroke-opacity:1;marker:none;color-rendering:auto;image-rendering:auto;shape-rendering:auto;text-rendering:auto;enable-background:accumulate"
       id="path816"
       cx="94.494049"
       cy="108.76784"
       r="38.5"
       inkscape:export-xdpi="329.87"
       inkscape:export-ydpi="329.87" />
    <path
       inkscape:connector-curvature="0"
       style="color:#000000;clip-rule:nonzero;display:inline;overflow:visible;visibility:visible;opacity:1;isolation:auto;mix-blend-mode:normal;color-interpolation:sRGB;color-interpolation-filters:linearRGB;solid-color:#000000;solid-opacity:1;vector-effect:none;fill:#b3b3b3;fill-opacity:1;fill-rule:nonzero;stroke:none;stroke-width:0;stroke-linecap:butt;stroke-linejoin:miter;stroke-miterlimit:4;stroke-dasharray:none;stroke-dashoffset:0;stroke-opacity:1;marker:none;color-rendering:auto;image-rendering:auto;shape-rendering:auto;text-rendering:auto;enable-background:accumulate"
       d="m 93.524599,70.285197 a 38.5,38.5 0 0 0 -37.530527,38.465353 38.5,38.5 0 0 0 19.480465,33.44241 c 1.13243,-1.8574 2.655221,-4.40735 4.275707,-7.2745 0.751157,-1.32903 1.521441,-2.73029 2.282031,-4.15375 l -1.703771,-0.26821 c 0,0 0.0971,-0.50636 0.425815,-1.05677 0.328713,-0.55041 0.904785,-1.23567 1.869137,-1.88464 0.419137,-0.28207 0.914807,-0.55665 1.489832,-0.81442 1.747437,-3.51482 3.263511,-6.95802 4.102073,-9.72654 0.373235,-1.23223 0.71922,-2.59153 1.044382,-4.03025 -0.0091,0.0128 -0.02043,0.0276 -0.02687,0.0377 -0.04798,0.0756 -0.01188,-0.0212 -0.01188,-0.0212 l -1.817979,-0.30489 c 0,0 0.07873,-0.35321 0.273371,-0.65991 0.19464,-0.30669 0.521816,-0.66432 1.027326,-0.98443 0.293397,-0.1858 0.652616,-0.35809 1.07487,-0.51212 1.40031,-7.14066 2.309945,-15.913684 2.876309,-23.575819 0.547351,-7.404917 0.781274,-13.734811 0.869714,-16.678052 z m 1.938382,0.01394 c 0.08933,2.948762 0.324686,9.26964 0.871265,16.664098 0.569294,7.701754 1.485387,16.523805 2.897497,23.684345 0.330605,0.12553 0.618911,0.26094 0.866097,0.40153 0.52295,0.29741 0.87021,0.61999 1.08986,0.89813 0.21964,0.27815 0.34003,0.60772 0.34003,0.60772 l -1.765786,0.52916 c 0,0 0.03491,0.0664 -0.0072,0.0176 0.317416,1.3945 0.653986,2.71396 1.016996,3.91243 0.86205,2.84606 2.44095,6.40523 4.2509,10.02212 0.37417,0.17607 0.71595,0.35682 1.01906,0.54002 1.01614,0.61416 1.64932,1.25023 2.02933,1.76164 0.38001,0.51142 0.53123,0.99066 0.53123,0.99066 l -1.63297,0.4599 c 0.75659,1.41518 1.52269,2.80842 2.26963,4.12999 1.61589,2.85901 3.13327,5.40136 4.26434,7.25744 A 38.5,38.5 0 0 0 132.99403,108.75055 38.5,38.5 0 0 0 95.462981,70.299149 Z m -0.969449,16.785547 c -2.65e-4,0.0051 -5.29e-4,0.0098 -0.0011,0.01498 -0.548606,7.421917 -1.401226,15.852966 -2.745052,22.976376 0.742037,-0.10174 1.600919,-0.16001 2.619996,-0.15193 1.133081,0.009 2.083173,0.0899 2.886128,0.21859 -1.351655,-7.13734 -2.208689,-15.598024 -2.759003,-23.043036 -2.65e-4,-0.0051 -5.29e-4,-0.0098 -0.0011,-0.01498 z m -0.139525,24.683246 c -1.287929,-0.0102 -2.255759,0.0942 -2.991033,0.24443 -0.416859,1.99077 -0.874096,3.86033 -1.381829,5.53661 -0.752639,2.48485 -1.975546,5.37929 -3.401859,8.35763 1.913467,-0.47854 4.399995,-0.78132 7.653795,-0.75396 3.571259,0.03 6.255259,0.41842 8.281669,0.97514 -1.47145,-3.05617 -2.734983,-6.03247 -3.506249,-8.57881 -0.500518,-1.65246 -0.952497,-3.49248 -1.364774,-5.45134 -0.79157,-0.18164 -1.855668,-0.31833 -3.28972,-0.3297 z m -0.90899,15.22853 c -3.776932,0.0329 -6.303817,0.5489 -7.983492,1.18184 -1.320726,2.61755 -2.74651,5.23758 -4.107761,7.64603 -1.605475,2.8406 -3.111643,5.36594 -4.246769,7.23059 a 38.5,38.5 0 0 0 3.417361,1.52961 c 0.205677,-1.3679 0.690153,-3.61053 1.813844,-5.85185 1.74252,-3.47559 5.206411,-7.02262 11.302154,-7.09207 0.196638,-0.003 0.396269,0 0.598413,0.004 6.455873,0.16338 10.178853,3.83365 12.122773,7.36904 1.18981,2.16389 1.76665,4.2981 2.03812,5.63533 a 38.5,38.5 0 0 0 3.50108,-1.56167 c -1.13765,-1.86741 -2.6532,-4.40703 -4.26744,-7.26313 -1.31333,-2.32368 -2.68629,-4.84423 -3.9672,-7.36957 -1.87375,-0.7569 -4.831274,-1.41946 -9.449036,-1.45831 -0.263028,-0.002 -0.520251,-0.002 -0.772047,0 z m 0.213424,6.48538 c -5.423374,0.0479 -8.124423,2.99088 -9.671762,6.07717 -1.131988,2.25784 -1.542882,4.52837 -1.689302,5.67303 a 38.5,38.5 0 0 0 12.196671,2.01848 38.5,38.5 0 0 0 12.141372,-2.01538 c -0.21977,-1.16692 -0.73415,-3.23467 -1.88877,-5.33456 -1.73899,-3.16267 -4.760842,-6.26745 -10.554907,-6.41408 -0.180668,-0.005 -0.358354,-0.006 -0.533302,-0.005 z"
       id="path2671" />
  </g>
</svg>
